# xmcd CD database file
#
# Track frame offsets:
#	150
#	14940
#	31998
#	51785
#	64733
#	84185
#	96598
#	116016
#	136842
#	153847
#	172332
#	192399
#	211924
#	231949
#	245459
#	263069
#	274597
#	293244
#	307017
#	320742
#
# Disc length: 4513 seconds
#
# Revision: 1
# Processed by: cddbd v1.5.1PL2 Copyright (c) Steve Scherf et al.
# Submitted via: CDex 1.51
#
DISCID=2b119f14
DTITLE=Various Artist - Salsa CD1
DYEAR=1900
DGENRE=Salsa
TTITLE0=Tito Puente - Oye Como Va
TTITLE1=Ray Barretto - El Nuevo Barretto
TTITLE2=Pete Conde Rodriguez - I LIke It Like That
TTITLE3=Celia Cruz - Guantanamera
TTITLE4=Fania All Stars - Dime Que Te Pasa
TTITLE5=La Lupe - Fever
TTITLE6=Willie Colon and Hector Lavoie - Abuelita
TTITLE7=Ricardo Ray and Bobby Cruz - Sonido Bestial
TTITLE8=Cheo Feliciano - El Raton
TTITLE9=Edouardo Vals - Cafe
TTITLE10=Ricardo Vilas - A Felicidad
TTITLE11=Ruben Blades - Pedro Navaja
TTITLE12=Tito Puente and CeliaCruz - Ay Mi Cuba
TTITLE13=Ismael Rivera - El Negron Bembon
TTITLE14=Eddie Palmieri - El Cuarto
TTITLE15=Johnny Colon - New York Mambo
TTITLE16=Johnny Pacheco - Anoranzas
TTITLE17=Sonora Del Sol - El Carretero
TTITLE18=Mongo Santamaria - Last Tango In Paris
TTITLE19=Adalberto Santiago - Sarandonga
EXTD=
EXTT0=
EXTT1=
EXTT2=
EXTT3=
EXTT4=
EXTT5=
EXTT6=
EXTT7=
EXTT8=
EXTT9=
EXTT10=
EXTT11=
EXTT12=
EXTT13=
EXTT14=
EXTT15=
EXTT16=
EXTT17=
EXTT18=
EXTT19=
PLAYORDER=
